<svg width="472" height="479" viewBox="0 0 472 479" fill="none" xmlns="http://www.w3.org/2000/svg">
<path d="M362 1.5L1.5 304L470.5 477.5L362 1.5Z" fill="black" stroke="black"/>
<path d="M294.123 433.845L279.783 440.219C279.143 440.503 278.452 440.65 277.752 440.65H270.855L263.491 439.832C263.096 439.788 262.707 439.697 262.334 439.561L253.169 436.228L239.905 430.039L230.95 425.968C230.439 425.736 229.893 425.591 229.334 425.54L220.451 424.733L213.182 423.925C212.725 423.874 212.262 423.887 211.808 423.963L202.672 425.485C202.148 425.573 201.614 425.576 201.089 425.495L190.386 423.849L178.006 422.08L162.089 419.427L144.89 414.268C144.567 414.171 144.254 414.041 143.956 413.881L133.265 408.124C133.027 407.996 132.801 407.849 132.587 407.685L121.836 399.415C121.554 399.198 121.297 398.952 121.067 398.681L111.993 387.957C111.788 387.715 111.607 387.454 111.452 387.178L103.978 373.892C103.811 373.595 103.675 373.281 103.572 372.957L97.5371 353.991L95.7685 344.264L94.8843 331.884V323.042L96.5901 310.248C96.6318 309.935 96.7031 309.627 96.8028 309.327L101.77 294.425C101.895 294.05 102.064 293.691 102.274 293.356L110.801 279.712L121.059 264.325C121.294 263.973 121.483 263.593 121.622 263.194L128.347 243.858C128.44 243.591 128.51 243.317 128.557 243.038L130.255 232.846L131.096 223.594C131.125 223.278 131.124 222.96 131.092 222.644L130.255 214.276L128.487 204.549L121.599 181.302C121.475 180.885 121.298 180.486 121.071 180.115L111.685 164.757L103.138 151.081C102.942 150.767 102.781 150.432 102.659 150.082L96.8349 133.443C96.7139 133.097 96.6312 132.739 96.5884 132.375L94.8843 117.89L94.0241 103.267C94.0081 102.994 94.0144 102.721 94.0429 102.45L95.6985 86.7217C95.745 86.2801 95.8501 85.8467 96.011 85.4329L101.958 70.1395L108.817 56.4219C108.961 56.1353 109.131 55.8633 109.326 55.6094L117.372 45.1496C117.705 44.7165 118.107 44.3409 118.562 44.0379L128.053 37.7101C128.341 37.5181 128.649 37.3566 128.97 37.228L136.773 34.1069C137.143 33.959 137.529 33.8558 137.923 33.7995L142.856 33.0947C143.296 33.0318 143.743 33.0279 144.184 33.0831L149.955 33.8044C150.379 33.8574 150.794 33.9646 151.191 34.1234L163.374 38.9966C163.696 39.1251 164.003 39.2867 164.291 39.4787L173.957 45.9227C174.297 46.1494 174.608 46.4171 174.883 46.7195L183.312 55.9911L190.386 64.8338L196.231 71.5144C196.46 71.7761 196.716 72.0132 196.994 72.2218L203.121 76.8169C203.472 77.0802 203.856 77.2962 204.264 77.4592L216.488 82.3488C216.771 82.4622 217.065 82.5494 217.364 82.6093L225.271 84.1907C225.594 84.2553 225.923 84.2878 226.252 84.2878H229.609C229.987 84.2878 230.364 84.2449 230.733 84.1598L241.674 81.635L255.822 76.3294L266.786 72.956C267.139 72.8472 267.504 72.778 267.872 72.7496L278.372 71.9419C278.665 71.9194 278.96 71.9227 279.253 71.952L287.008 72.7275C287.438 72.7705 287.861 72.8692 288.266 73.021L294.73 75.4451L305.708 79.6675C306.052 79.7997 306.38 79.9696 306.687 80.174L313.772 84.8975C314.046 85.0801 314.301 85.2894 314.534 85.5222L323.438 94.4256C323.752 94.7399 324.023 95.0946 324.243 95.4805L330.67 106.727C330.879 107.093 331.041 107.485 331.152 107.892L333.462 116.36C333.579 116.789 333.638 117.231 333.638 117.676V125.354C333.638 125.683 333.605 126.011 333.541 126.334L331.869 134.691L329.217 144.418L327.554 154.395C327.484 154.817 327.468 155.245 327.506 155.67L328.332 164.757L329.137 172.8C329.19 173.33 329.327 173.847 329.543 174.333L332.754 181.558L337.886 190.968C338.002 191.179 338.132 191.381 338.276 191.574L342.936 197.788C343.221 198.167 343.557 198.503 343.936 198.788L350.139 203.44C350.339 203.59 350.549 203.724 350.769 203.842L361.935 209.855L371.097 215.685C371.472 215.924 371.813 216.211 372.112 216.54L380.504 225.771L384.612 231.522C384.82 231.814 384.997 232.128 385.139 232.458L389.946 243.675C390.135 244.117 390.26 244.584 390.316 245.061L391.941 258.875C391.98 259.207 391.986 259.542 391.958 259.874L391.171 269.319C391.134 269.761 391.039 270.196 390.887 270.613L387.732 279.29C387.63 279.571 387.503 279.842 387.352 280.1L381.389 290.323L375.697 297.641C375.367 298.066 374.971 298.434 374.524 298.732L370.23 301.595C370.006 301.744 369.77 301.875 369.525 301.986L360.166 306.24L352.596 309.605C352.338 309.72 352.089 309.856 351.854 310.013L342.008 316.577C341.734 316.76 341.479 316.969 341.246 317.202L333.988 324.46C333.755 324.693 333.546 324.948 333.363 325.222L327.044 334.701C326.726 335.178 326.493 335.706 326.354 336.262L324.101 345.271C323.975 345.776 323.929 346.297 323.963 346.816L324.795 359.297L325.68 374.329L324.832 391.278C324.808 391.766 324.712 392.249 324.547 392.71L320.571 403.843C320.44 404.209 320.267 404.56 320.055 404.886L309.307 421.421C309.023 421.858 308.672 422.247 308.268 422.576L295.245 433.157C294.903 433.435 294.526 433.666 294.123 433.845Z" fill="#2ADD1A" stroke="#2ADD1A"/>
<path d="M188.176 187.747H191.638C192.551 187.747 193.444 187.477 194.204 186.971C195.161 186.333 195.846 185.36 196.125 184.244L197.46 178.905L200.783 167.275C200.925 166.778 201.143 166.306 201.43 165.875L206.303 158.566L213.099 150.071C213.284 149.84 213.489 149.626 213.711 149.431L227.525 137.344L241.245 127.912C241.53 127.716 241.835 127.55 242.154 127.417L252.285 123.196L258.51 120.861C259.071 120.651 259.666 120.543 260.266 120.543H265.733C266.198 120.543 266.66 120.607 267.107 120.735L272.623 122.311L282.125 124.687C282.855 124.869 283.535 125.214 284.113 125.696L287.568 128.576C288.206 129.107 288.701 129.789 289.01 130.56L291.815 137.572C291.989 138.007 292.101 138.465 292.147 138.931L292.961 147.071V151.315C292.961 152.015 292.815 152.707 292.53 153.346L289.715 159.682C289.522 160.115 289.269 160.519 288.963 160.881L279.956 171.525C279.784 171.728 279.596 171.918 279.393 172.091L267.785 182.041C267.474 182.307 267.133 182.534 266.767 182.717L253.169 189.516L236.81 195.543C236.516 195.651 236.212 195.732 235.903 195.783L222.032 198.095C221.004 198.267 220.055 198.755 219.318 199.492L217.595 201.215C217.145 201.665 216.785 202.196 216.535 202.781L211.608 214.276L206.303 225.771L203.861 233.911C203.721 234.377 203.65 234.861 203.65 235.348V243.811C203.65 244.163 203.687 244.515 203.761 244.859L206.303 256.721L207.602 261.92C207.904 263.126 208.645 264.177 209.68 264.867L212.34 266.641C213.021 267.095 213.802 267.375 214.616 267.456L222.22 268.216H231.748C232.462 268.216 233.167 268.063 233.817 267.768L242.19 263.962C242.435 263.851 242.67 263.72 242.894 263.571L250.215 258.69C250.415 258.557 250.606 258.408 250.786 258.247L258.802 251.032C259.171 250.7 259.489 250.314 259.745 249.888L264.176 242.502C264.499 241.964 264.718 241.37 264.821 240.752L266.433 231.077L268.958 220.136C269.043 219.767 269.086 219.39 269.086 219.012V212.507L268.812 208.399C268.76 207.613 268.901 206.826 269.225 206.107C269.908 204.589 271.329 203.532 272.98 203.315L275.684 202.959C276.575 202.842 277.48 202.967 278.306 203.321L282.611 205.166C283.025 205.343 283.413 205.576 283.764 205.857L290.583 211.312C291.545 212.082 292.189 213.179 292.392 214.394L293.726 222.399C293.805 222.876 293.815 223.362 293.755 223.842L292.961 230.193L291.275 242.839C291.221 243.249 291.115 243.651 290.961 244.035L287.656 252.299L284.256 262.5C284.165 262.773 284.097 263.054 284.054 263.339L281.466 280.596L278.004 298.771C277.954 299.034 277.883 299.292 277.791 299.544L274.392 308.893L266.433 326.578L256.706 343.38L247.863 357.528L240.162 368.653C239.991 368.899 239.798 369.13 239.586 369.342L229.066 379.862C228.632 380.296 228.122 380.647 227.561 380.896L221.086 383.774C220.665 383.961 220.219 384.089 219.763 384.154L215.43 384.773C214.661 384.883 213.878 384.813 213.141 384.567L209.591 383.384C209.169 383.243 208.768 383.047 208.398 382.8L202.204 378.671C201.415 378.145 200.793 377.407 200.408 376.541L197.775 370.616C197.566 370.147 197.431 369.648 197.374 369.137L196.637 362.501C196.596 362.134 196.596 361.764 196.637 361.397L197.401 354.517C197.44 354.167 197.516 353.822 197.627 353.488L199.228 348.685L200.641 343.741C200.875 342.924 201.312 342.18 201.913 341.579L206.303 337.19L219.567 323.041L229.294 314.199L237.252 307.124L243.924 302.121C244.192 301.92 244.438 301.693 244.661 301.442L250.961 294.354C251.253 294.026 251.5 293.661 251.696 293.269L255.523 285.616C255.721 285.219 255.866 284.797 255.953 284.361L257.59 276.175L259.203 271.338C259.306 271.027 259.359 270.702 259.359 270.375V269.368C259.359 268.244 258.447 267.332 257.323 267.332C256.921 267.332 256.528 267.451 256.193 267.674L252.022 270.455C251.61 270.73 251.16 270.941 250.685 271.084L243.058 273.372C242.726 273.472 242.383 273.536 242.037 273.565L231.947 274.406H223.988L216.03 273.522L208.527 271.855C208.224 271.787 207.928 271.692 207.642 271.569L202.432 269.337C202.066 269.18 201.72 268.98 201.402 268.741L195.343 264.197C194.987 263.93 194.669 263.617 194.396 263.266L189.143 256.513C188.795 256.065 188.526 255.562 188.346 255.024L185.192 245.562C185.118 245.338 185.059 245.108 185.017 244.876L183.312 235.498L182.427 228.424V223.819C182.427 223.354 182.492 222.892 182.62 222.445L184.196 216.928L185.964 211.623L188.459 205.801C188.564 205.556 188.65 205.303 188.714 205.044L189.252 202.894C189.415 202.242 189.389 201.557 189.176 200.919C188.824 199.864 187.996 199.036 186.941 198.684L185.964 198.359L178.89 196.59L174.48 195.12C173.888 194.923 173.339 194.617 172.86 194.218L168.894 190.913C168.486 190.573 168.136 190.171 167.855 189.722L164.489 184.337C164.074 183.672 163.821 182.92 163.75 182.139L163.026 174.181C162.991 173.794 163.001 173.405 163.056 173.021L163.794 167.856C163.836 167.559 163.905 167.266 164 166.981L165.626 162.104L167.997 154.991C168.183 154.432 168.468 153.909 168.836 153.449L171.585 150.012C171.736 149.824 171.938 149.683 172.167 149.607C173.131 149.285 174.056 150.188 173.758 151.16L173.585 151.727L173.061 154.206C172.827 155.312 172.975 156.464 173.481 157.475L174.469 159.451L175.637 162.371C176.027 163.347 176.1 164.421 175.845 165.441L175.353 167.409L174.045 171.334C173.744 172.236 173.707 173.205 173.938 174.127L174.957 178.206C175.214 179.234 175.792 180.155 176.607 180.834L180.321 183.929C180.546 184.116 180.787 184.283 181.041 184.429L185.696 187.089C186.451 187.52 187.306 187.747 188.176 187.747Z" fill="black" stroke="black"/>
<path d="M235.483 189.516L230.159 191.038C229.588 191.201 228.99 191.247 228.401 191.173C225.383 190.796 223.645 187.548 225.005 184.828L225.756 183.326L235.223 169.556C235.396 169.304 235.592 169.069 235.808 168.853L246.979 157.682L257.59 147.955L266.131 141.977C266.332 141.836 266.543 141.71 266.763 141.601L270.385 139.79C271.268 139.348 272.261 139.178 273.241 139.3L277.412 139.822C278.328 139.936 279.194 140.302 279.915 140.879L281.358 142.033C282.544 142.982 283.234 144.418 283.234 145.937V151.196C283.234 151.973 283.054 152.738 282.706 153.432L279.291 160.263C278.976 160.893 278.531 161.45 277.985 161.897L269.086 169.178L258.475 177.136L247.694 185.429C247.221 185.793 246.687 186.069 246.116 186.244L235.483 189.516Z" fill="#2ADD1A" stroke="#2ADD1A"/>
<path d="M215.985 371.936L213.417 372.303C212.249 372.469 211.06 372.218 210.059 371.593L206.408 369.311C205.215 368.565 204.391 367.35 204.139 365.965L203.023 359.828C202.855 358.903 202.951 357.95 203.3 357.077L206.071 350.149C206.225 349.764 206.426 349.4 206.67 349.065L213.146 340.16C213.3 339.949 213.47 339.75 213.654 339.565L223.988 329.232L233.715 319.505L239.678 313.542C239.829 313.391 239.995 313.255 240.172 313.137L240.595 312.854C242.568 311.539 245.211 312.953 245.211 315.324C245.211 315.748 245.12 316.167 244.945 316.553L240.789 325.695L236.368 339.843L231.246 353.503C231.124 353.828 230.969 354.139 230.782 354.431L225.088 363.38C224.944 363.605 224.783 363.818 224.606 364.018L219.015 370.308C218.229 371.192 217.156 371.768 215.985 371.936Z" fill="#2ADD1A" stroke="#2ADD1A"/>
</svg>
