<svg width="172" height="142" viewBox="0 0 172 142" fill="none" xmlns="http://www.w3.org/2000/svg">
<path d="M116.19 13.7818C127.806 20.059 139.843 26.0773 150.1 35.7842C160.357 45.4911 168.802 58.919 170.84 73.5441C172.911 88.1368 168.575 103.959 159.839 116.287C151.103 128.615 137.966 137.48 124.28 139.681C110.593 141.881 96.356 137.448 81.8927 137.869C67.3971 138.289 52.6749 143.563 39.9588 140.781C27.2751 137.998 16.5975 127.191 10.288 114.443C4.01089 101.694 2.13422 87.0043 0.839967 71.6027C-0.486645 56.1687 -1.19849 39.9905 6.34055 29.4423C13.8796 18.8941 29.7342 13.9436 43.7445 9.05779C57.7549 4.13962 69.9209 -0.746195 81.6339 0.0950716C93.3469 0.936338 104.542 7.50469 116.19 13.7818Z" fill="#2ADD1A"/>
<path d="M53.8 86H46.6V74.6H36.6V86H29.4V58H36.6V69H46.6V58H53.8V86ZM72.2188 86H65.0188V63.6H56.6188V58H80.6188V63.6H72.2188V86ZM107.423 70.4L101.823 80.4H96.2234L90.6234 70.4V86H83.4234V58H91.0234L99.0234 72.8L107.023 58H114.623V86H107.423V70.4ZM126.639 80.4H141.239V86H119.439V58H126.639V80.4Z" fill="black"/>
</svg>
