<svg width="55" height="55" viewBox="0 0 55 55" fill="none" xmlns="http://www.w3.org/2000/svg">
<path d="M42 3H13C7.47715 3 3 7.47715 3 13V42C3 47.5228 7.47715 52 13 52H42C47.5228 52 52 47.5228 52 42V13C52 7.47715 47.5228 3 42 3Z" stroke="#171516" stroke-width="5"/>
<path d="M40.5 28V27C40.5 19.8203 34.6797 14 27.5 14C20.3203 14 14.5 19.8203 14.5 27V28C14.5 35.1797 20.3203 41 27.5 41C34.6797 41 40.5 35.1797 40.5 28Z" stroke="#171516" stroke-width="5"/>
<path d="M40.5 12.5C40.5 13.6046 41.3954 14.5 42.5 14.5C43.6046 14.5 44.5 13.6046 44.5 12.5C44.5 11.3954 43.6046 10.5 42.5 10.5C41.3954 10.5 40.5 11.3954 40.5 12.5Z" stroke="#171516"/>
</svg>
