<svg width="50" height="49" viewBox="0 0 50 49" fill="none" xmlns="http://www.w3.org/2000/svg">
<path d="M12 15H2V48H12V15Z" fill="#171516" stroke="#171516"/>
<path d="M7 1C10.3137 1 13 3.68629 13 7C13 10.3137 10.3137 13 7 13C3.68629 13 1 10.3137 1 7C1 3.68629 3.68629 1 7 1Z" fill="#171516" stroke="#171516"/>
<path d="M18 15V48H28V15H18Z" fill="#171516" stroke="#171516"/>
<path d="M31.3104 17.2931L30.2061 18.0293C29.7388 18.3408 29.3278 18.7296 28.9908 19.1789C28.3477 20.0364 28 21.0795 28 22.1514V26.5L29 25.5L29.4502 25.0498C29.8144 24.6856 30.2348 24.3826 30.6954 24.1523C30.8982 24.0509 31.1079 23.964 31.323 23.8923L31.7885 23.7372C32.2597 23.5801 32.7532 23.5 33.25 23.5C33.7468 23.5 34.2403 23.5801 34.7115 23.7372L35.2546 23.9182C35.418 23.9727 35.5773 24.0387 35.7314 24.1157C36.2368 24.3684 36.6765 24.7354 37.0156 25.1875L37.5257 25.8675C37.8398 26.2864 38.0844 26.7532 38.25 27.25C38.4156 27.7468 38.5 28.2669 38.5 28.7906V47H49.5V31.6401C49.5 29.2251 49.1634 26.822 48.5 24.5L47.6816 22.3175C47.2324 21.1197 46.532 20.032 45.6274 19.1274C45.2102 18.7102 44.7527 18.3351 44.2617 18.0078L43.5964 17.5643C42.5385 16.859 41.3777 16.3222 40.1552 15.9729L39.8363 15.8818C38.9497 15.6285 38.0323 15.5 37.1103 15.5C36.0437 15.5 34.9842 15.6719 33.9724 16.0092L33.8564 16.0479C32.9561 16.348 32.0999 16.7667 31.3104 17.2931Z" fill="#171516" stroke="#171516"/>
<path d="M34 16L32.0828 16.7669C31.3621 17.0552 30.6656 17.4006 30 17.8V17.8L29 18.4L28 19" stroke="#171516"/>
</svg>
