<svg width="72" height="98" viewBox="0 0 72 98" fill="none" xmlns="http://www.w3.org/2000/svg">
<path d="M47.5445 95.3647L45.3821 96.3257C44.7428 96.6099 44.051 96.7567 43.3514 96.7567H42.543L41.268 96.615C40.8731 96.5711 40.4849 96.4803 40.1115 96.3446L38.3887 95.7181L35.273 94.2641L33.76 93.5764C33.2491 93.3441 32.7027 93.1996 32.1437 93.1487L30.7033 93.0178L29.5235 92.8867C29.0659 92.8359 28.6035 92.8485 28.1494 92.9242L27.1316 93.0938C26.608 93.181 26.0739 93.1844 25.5493 93.1037L23.6409 92.8101L20.7329 92.3946L16.9941 91.7715L13.3263 90.6712C13.0028 90.5741 12.6899 90.4445 12.3925 90.2844L10.4963 89.2633C10.2588 89.1355 10.032 88.9886 9.81824 88.8241L7.86253 87.3197C7.58109 87.1032 7.32351 86.8574 7.09415 86.5863L5.46184 84.6572C5.25728 84.4155 5.07615 84.1548 4.92089 83.8788L3.53619 81.4171C3.36908 81.12 3.23279 80.8066 3.12944 80.4818L1.83086 76.4006L1.41543 74.1157L1.20772 71.2077V69.1306L1.56045 66.4851C1.60215 66.1723 1.67338 65.8641 1.77317 65.5648L2.68131 62.8403C2.80629 62.4654 2.97527 62.1066 3.18474 61.7715L4.94659 58.9525L7.08606 55.7433C7.32052 55.3916 7.50944 55.0116 7.6483 54.6124L8.96127 50.8376C9.05418 50.5705 9.12426 50.296 9.17076 50.017L9.51632 47.9436L9.68083 46.1341C9.70957 45.8179 9.70813 45.4997 9.67655 45.1839L9.51632 43.5816L9.10089 41.2967L7.62523 36.3164C7.50172 35.8995 7.32436 35.5006 7.09765 35.1296L5.1543 31.9496L3.37241 29.0985C3.17618 28.7846 3.01543 28.4498 2.89311 28.1003L1.80521 24.992C1.6842 24.6463 1.60155 24.2883 1.55875 23.9245L1.20772 20.9407L1.02408 17.8188C1.00805 17.5464 1.01435 17.2731 1.04292 17.0017L1.3454 14.1282C1.39188 13.6866 1.49697 13.2532 1.6579 12.8394L2.86944 9.72403L4.31578 6.83135C4.45903 6.54484 4.62949 6.27276 4.82479 6.01886L6.10523 4.3543C6.43836 3.92123 6.84023 3.54568 7.29485 3.24261L8.66772 2.32736C8.95572 2.13536 9.26288 1.97378 9.58426 1.84523L10.6215 1.43032C10.9912 1.28244 11.3772 1.17926 11.7714 1.12295L11.9692 1.09469C12.4091 1.03185 12.8555 1.02793 13.2965 1.08305L13.6548 1.12785C14.079 1.18087 14.4947 1.28808 14.8916 1.44685L16.9261 2.26066C17.2475 2.38921 17.5547 2.55079 17.8427 2.74279L19.3899 3.77429C19.7301 4.00106 20.0411 4.26869 20.3161 4.57118L21.9792 6.40059L23.6409 8.47774L24.7505 9.74582C24.9795 10.0075 25.2352 10.2446 25.5134 10.4533L26.2276 10.989C26.5788 11.2523 26.9631 11.4683 27.3707 11.6314L29.4462 12.4616C29.7297 12.575 30.0231 12.6622 30.3225 12.7221L31.4759 12.9527C31.7909 13.0157 32.1113 13.0475 32.4326 13.0475C32.8018 13.0475 33.1697 13.0056 33.5295 12.9226L35.6884 12.4243L39.0119 11.178L41.1802 10.5109C41.5337 10.4021 41.8983 10.3329 42.2671 10.3045L43.9715 10.1734C44.2649 10.1508 44.5597 10.1542 44.8525 10.1835L45.8414 10.2824C46.2717 10.3254 46.6946 10.4241 47.0995 10.5759L48.1513 10.9703L50.3343 11.8099C50.6781 11.9422 51.0063 12.112 51.3129 12.3164L52.3091 12.9806C52.5831 13.1632 52.8383 13.3725 53.0712 13.6053L54.5325 15.0666C54.8467 15.3808 55.1177 15.7356 55.3381 16.1214L56.3523 17.8962C56.5617 18.2626 56.7239 18.6541 56.8349 19.0613L57.1146 20.0869C57.2316 20.5157 57.2908 20.9581 57.2908 21.4025V22.315C57.2908 22.6442 57.2583 22.9727 57.1937 23.2956L56.8754 24.8872L56.2522 27.1721L55.9425 29.0304C55.8723 29.4515 55.8564 29.8799 55.895 30.3051L56.0445 31.9496L56.1723 33.2275C56.2252 33.7569 56.3623 34.2745 56.5784 34.7607L57.0831 35.8961L58.1565 37.8641C58.2716 38.0751 58.4018 38.2775 58.546 38.4698L59.1471 39.2713C59.4314 39.6503 59.7681 39.987 60.1471 40.2713L60.9377 40.8643C61.1372 41.0139 61.3476 41.1484 61.5672 41.2666L63.9377 42.543L65.6576 43.6375C66.0326 43.8761 66.374 44.1636 66.673 44.4925L68.2997 46.2819L69.0241 47.2961C69.233 47.5884 69.4097 47.9025 69.5512 48.2327L70.2992 49.978C70.4885 50.4196 70.6131 50.8862 70.6692 51.3634L70.9413 53.6762C70.9803 54.0079 70.986 54.3428 70.9583 54.6756L70.8478 56.0019C70.8109 56.4438 70.7155 56.8788 70.564 57.2954L70.115 58.5301C70.0128 58.8111 69.8856 59.0824 69.735 59.3408L68.5074 61.4451L67.5516 62.6741C67.2216 63.0983 66.8255 63.4665 66.3783 63.7646L66.1435 63.9211C65.9196 64.0704 65.684 64.2013 65.439 64.3127L63.5223 65.184L62.0416 65.842C61.7829 65.957 61.5344 66.0938 61.2988 66.2508L59.5722 67.4019C59.2982 67.5846 59.043 67.7938 58.8102 68.0266L57.6409 69.1959C57.4081 69.4287 57.1988 69.684 57.0162 69.9579L56.1095 71.318C55.7916 71.7948 55.558 72.3228 55.419 72.8788L55.1964 73.7694C55.0702 74.2741 55.0236 74.7955 55.0582 75.3146L55.2136 77.6469L55.4214 81.178L55.2505 84.5953C55.2261 85.084 55.13 85.5665 54.9655 86.0273L54.3722 87.6884C54.2412 88.0551 54.0679 88.4053 53.8557 88.7317L51.9035 91.7351C51.6194 92.1721 51.2688 92.562 50.8642 92.8907L48.6667 94.6762C48.3246 94.9541 47.9473 95.1856 47.5445 95.3647Z" fill="#72a9e2" stroke="#72a9e2"/>
<path d="M23.4895 37.3501H23.9352C24.1496 37.3501 24.3593 37.2866 24.5378 37.1677C24.7626 37.0178 24.9236 36.7894 24.9891 36.5272L25.3027 35.273L25.9191 33.1154C26.0612 32.6181 26.2796 32.1459 26.5665 31.7155L27.3798 30.4955L28.764 28.7653C28.9487 28.5345 29.1534 28.3205 29.3759 28.1259L32.365 25.5104L35.2594 23.5204C35.5447 23.3243 35.8495 23.1584 36.169 23.0253L38.181 22.1869L38.9938 21.8821C39.5552 21.6716 40.1498 21.5638 40.7494 21.5638H40.8042C41.2688 21.5638 41.7311 21.6285 42.1778 21.7562L42.9585 21.9792L44.7037 22.4155C45.1956 22.5385 45.6533 22.7709 46.0428 23.0955C46.4724 23.4535 46.8061 23.9128 47.0137 24.4319L47.2657 25.0619C47.4398 25.4972 47.5519 25.9548 47.5985 26.4213L47.7359 27.7952V27.9805C47.7359 28.68 47.5891 29.3719 47.305 30.0111L47.1954 30.2577C47.0028 30.691 46.7496 31.0947 46.4433 31.4567L44.879 33.3054C44.7067 33.509 44.5185 33.6984 44.316 33.872L42.1795 35.7033C41.8691 35.9693 41.5273 36.1963 41.1616 36.3791L38.3887 37.7656L34.8841 39.0567C34.5901 39.1651 34.2866 39.2455 33.9776 39.297L31.4272 39.7221C30.9564 39.8005 30.5218 40.0242 30.1843 40.3617C29.9783 40.5677 29.8134 40.8112 29.6987 41.079L28.6261 43.5816L27.3798 46.2819L26.9675 47.6561C26.8277 48.1222 26.7567 48.6063 26.7567 49.0929V50.1142C26.7567 50.4663 26.7939 50.8175 26.8677 51.1618L27.3798 53.5519L27.5743 54.33C27.7165 54.8986 28.0655 55.3938 28.5531 55.7189C28.8738 55.9327 29.2421 56.0645 29.6256 56.1029L31.1187 56.2522H32.5282C33.242 56.2522 33.9475 56.0994 34.5972 55.804L35.5281 55.3809C35.7731 55.2696 36.0086 55.1386 36.2326 54.9894L37.4638 54.1685C37.6647 54.0346 37.8557 53.8863 38.0351 53.7247L39.2857 52.5993C39.655 52.2669 39.9727 51.8813 40.2283 51.4553L40.6006 50.8348C40.9233 50.2969 41.142 49.7031 41.2451 49.0843L41.5045 47.5282L41.9996 45.3827C42.0846 45.014 42.1276 44.6368 42.1276 44.2584V43.1662L42.0633 42.2011C42.0509 42.0164 42.0842 41.8316 42.1602 41.6628C42.3207 41.3061 42.6544 41.0579 43.0423 41.0069L43.4762 40.9498C43.8171 40.905 44.1638 40.9528 44.4798 41.0882L44.9699 41.2982C45.2892 41.4351 45.5885 41.6144 45.8598 41.8315L46.0993 42.0231C47.0194 42.7591 47.6353 43.8089 47.829 44.9711C47.905 45.4271 47.9145 45.8917 47.8572 46.3505L47.7359 47.3205L47.4028 49.8186C47.3481 50.2287 47.2427 50.6305 47.0891 51.0147L46.4896 52.5133L45.7958 54.5949C45.7046 54.8684 45.6373 55.1493 45.5945 55.4344L45.0356 59.1602L44.28 63.1271C44.2299 63.3901 44.1588 63.6487 44.0673 63.9003L43.3739 65.8071L41.5045 69.9614L39.2196 73.908L37.1424 77.2314L35.5296 79.561C35.3589 79.8077 35.1663 80.0384 34.9542 80.2505L33.2292 81.9756C32.7952 82.4095 32.2851 82.7598 31.7243 83.0091L31.2008 83.2418C30.8707 83.3885 30.5219 83.4888 30.1643 83.5399L30.079 83.5521C29.5334 83.63 28.977 83.5799 28.4541 83.4055C28.1547 83.3057 27.8699 83.1665 27.6073 82.9914L27.2428 82.7484C26.5182 82.2653 25.9458 81.5864 25.5921 80.7906C25.4003 80.3591 25.2761 79.9006 25.224 79.4313L25.1563 78.8222C25.1155 78.4552 25.1155 78.0848 25.1563 77.7179L25.2442 76.927C25.2831 76.577 25.3588 76.2321 25.4702 75.8981L25.7181 75.1543L25.7776 74.9461C26.011 74.129 26.4488 73.385 27.0497 72.7841L27.3798 72.454L30.4956 69.1305L32.7804 67.0534L34.6499 65.3917L35.9089 64.4474C36.1767 64.2466 36.4236 64.0194 36.646 63.7692L37.5339 62.7702C37.8256 62.4421 38.0727 62.0771 38.269 61.6845L38.7124 60.7977C38.9112 60.4002 39.056 59.978 39.1432 59.5422L39.4273 58.1216L39.806 56.9854C39.8303 56.9125 39.8427 56.8362 39.8427 56.7593V56.5228C39.8427 56.2586 39.6286 56.0445 39.3644 56.0445C39.27 56.0445 39.1777 56.0724 39.0991 56.1248L38.385 56.6009C38.112 56.7828 37.8136 56.9233 37.4993 57.0175L36.3968 57.3483C36.0639 57.4482 35.7216 57.513 35.3753 57.5419L33.4036 57.7062H31.5341L29.6647 57.4985L28.251 57.1844C27.9478 57.117 27.6516 57.0215 27.3661 56.8991L26.8922 56.696C26.5262 56.5392 26.1803 56.3392 25.8618 56.1003L25.2152 55.6154C24.8597 55.3487 24.5413 55.0359 24.2684 54.6851L23.7513 54.0202C23.4033 53.5728 23.1339 53.0694 22.9547 52.5317L22.507 51.1887C22.4322 50.9643 22.3734 50.7348 22.3311 50.502L21.9792 48.5667L21.7715 46.905V46.359C21.7715 45.8944 21.8363 45.4321 21.9639 44.9854L22.1869 44.2047L22.6024 42.9584L23.1527 41.6743C23.2012 41.5612 23.2405 41.4445 23.2703 41.3251L23.3746 40.9081C23.4129 40.7549 23.4067 40.594 23.3568 40.4442C23.2742 40.1963 23.0796 40.0018 22.8317 39.9192L22.6024 39.8427L20.9407 39.4273L20.527 39.2894C19.9768 39.106 19.4657 38.8213 19.0201 38.45C18.6412 38.1342 18.3149 37.7601 18.0534 37.3418L18.0308 37.3056C17.6223 36.6521 17.3731 35.9117 17.3034 35.1441L17.2547 34.6083C17.2195 34.2219 17.2295 33.8327 17.2844 33.4485L17.3457 33.019C17.3882 32.7221 17.4572 32.4295 17.5521 32.145L17.8249 31.3264L18.2897 29.9321C18.3945 29.6178 18.554 29.3246 18.7609 29.0659L19.2247 28.4861C19.2601 28.4419 19.3075 28.4089 19.3613 28.3909C19.5878 28.3154 19.8051 28.5274 19.7352 28.7558L19.6944 28.889L19.6786 28.9635C19.5543 29.552 19.6331 30.1653 19.9021 30.7032L19.9994 30.9466C20.2062 31.4636 20.2448 32.0325 20.1098 32.5727L19.9497 33.0529C19.783 33.5532 19.7623 34.0907 19.8902 34.6024C20.0329 35.1731 20.3534 35.6837 20.8053 36.0603L21.0914 36.2987C21.2675 36.4455 21.4562 36.5765 21.6552 36.6902L22.2202 37.0131C22.6068 37.2339 23.0443 37.3501 23.4895 37.3501Z" fill="black" stroke="black"/>
<path d="M34.2344 37.7655L32.9835 38.1229C32.8495 38.1612 32.7091 38.1721 32.5707 38.1548C31.8619 38.0662 31.4536 37.3033 31.7731 36.6644L31.9495 36.3115L33.9743 33.3664C34.1473 33.1147 34.343 32.8794 34.559 32.6635L36.9347 30.2878L39.4273 28.0029L41.281 26.7053C41.4297 26.6012 41.5859 26.5082 41.7483 26.427L41.9756 26.3133C42.481 26.0606 43.0499 25.9632 43.6106 26.0333L43.924 26.0724C44.2434 26.1124 44.5454 26.2399 44.7968 26.441C45.2103 26.7718 45.451 27.2726 45.451 27.8022V28.3573C45.451 28.8073 45.3462 29.251 45.145 29.6535L44.8907 30.1621C44.5754 30.7927 44.1304 31.3494 43.5847 31.7959L42.1276 32.9881L39.635 34.8575L37.6501 36.3844C37.177 36.7483 36.6425 37.0246 36.072 37.2001L34.2344 37.7655Z" fill="#72a9e2" stroke="#72a9e2"/>
<path d="M31.4757 78.9848L30.5687 80.0052C30.2532 80.3601 29.8222 80.5917 29.3521 80.6588C28.8833 80.7258 28.4058 80.6249 28.0042 80.3739L27.8742 80.2926C27.2947 79.9304 26.8947 79.3407 26.7725 78.6684L26.7128 78.3401C26.6057 77.7514 26.6668 77.1444 26.889 76.5889L27.1481 75.9413C27.302 75.5565 27.5031 75.1925 27.7468 74.8574L28.8108 73.3944C28.9644 73.1832 29.1343 72.9843 29.3189 72.7997L31.5341 70.5845L33.819 68.2996L35.2197 66.8989C35.2551 66.8635 35.294 66.8316 35.3357 66.8038L35.4351 66.7375C35.8986 66.4286 36.5193 66.7608 36.5193 67.3177C36.5193 67.4173 36.498 67.5157 36.4568 67.6063L35.4807 69.7536L34.4421 73.0771L33.379 75.912C33.2572 76.2368 33.102 76.5481 32.9157 76.8407L31.9569 78.3474C31.8138 78.5724 31.6528 78.7855 31.4757 78.9848Z" fill="#72a9e2" stroke="#72a9e2"/>
</svg>
